<svg id="Слой_1" data-name="Слой 1" xmlns="http://www.w3.org/2000/svg" viewBox="0 0 1080 467"><defs><style>.cls-1{fill:#001886;}.cls-2{fill:#f09fe4;}</style></defs><path class="cls-1" d="M670.5,149.82V189h-3.89V170.67H642.9V189H639V149.82h3.95v17.43h23.71V149.82Z"/><path class="cls-1" d="M671.81,190.29h-6.5V172H644.2v18.31h-6.56V148.51h6.56v17.43h21.11V148.51h6.5Zm-3.89-2.62h1.27V151.13h-1.27v17.43H641.59V151.13h-1.33v36.54h1.33V169.36h26.33Z"/><path class="cls-1" d="M699.12,189V149.82h3.94V189Z"/><path class="cls-1" d="M704.37,190.29h-6.56V148.51h6.56Zm-3.94-2.62h1.32V151.13h-1.32Z"/><path class="cls-1" d="M755.06,157.16a10.14,10.14,0,0,0-2-1.69,13.42,13.42,0,0,0-2.54-1.29,17.92,17.92,0,0,0-3-.89,16.93,16.93,0,0,0-3.41-.33c-3.49,0-6,.66-7.69,2a6.43,6.43,0,0,0-2.45,5.31,5.34,5.34,0,0,0,1.16,3.64,8.24,8.24,0,0,0,3.63,2.15c1.65.55,3.76,1.12,6.31,1.7a46,46,0,0,1,7.38,2.1,11.42,11.42,0,0,1,4.79,3.27,8.55,8.55,0,0,1,1.69,5.59,9.74,9.74,0,0,1-1.07,4.68,9.38,9.38,0,0,1-3,3.31,13.5,13.5,0,0,1-4.56,2,24.54,24.54,0,0,1-5.8.64,27.47,27.47,0,0,1-5.95-.64,24.47,24.47,0,0,1-5.38-1.87,21.87,21.87,0,0,1-4.73-3.17l2-3.15A14.35,14.35,0,0,0,733,182.5a22,22,0,0,0,3.32,1.74,19.87,19.87,0,0,0,3.94,1.18,22.41,22.41,0,0,0,4.37.42,13.8,13.8,0,0,0,7.46-1.71,5.6,5.6,0,0,0,2.68-5.06,5.51,5.51,0,0,0-1.35-3.89,9.81,9.81,0,0,0-4.06-2.39,61.09,61.09,0,0,0-6.65-1.82,46,46,0,0,1-7-2.09,9.86,9.86,0,0,1-4.31-3.06,8.15,8.15,0,0,1-1.43-5,10.07,10.07,0,0,1,1.83-6.14,11.28,11.28,0,0,1,5-3.8,19.67,19.67,0,0,1,7.38-1.3,22,22,0,0,1,4.93.53,18.19,18.19,0,0,1,4.22,1.51,17.67,17.67,0,0,1,3.64,2.49Z"/><path class="cls-1" d="M744.53,190.56a28.8,28.8,0,0,1-6.23-.66,25.39,25.39,0,0,1-5.67-2,22.37,22.37,0,0,1-5-3.36l-.84-.74,3.45-5.5,1.16,1.2a13.74,13.74,0,0,0,2.33,1.88,20,20,0,0,0,3.13,1.63,18.79,18.79,0,0,0,3.68,1.11,21.4,21.4,0,0,0,4.12.39,12.73,12.73,0,0,0,6.76-1.5,4.3,4.3,0,0,0,2.07-4,4.23,4.23,0,0,0-1-3,8.61,8.61,0,0,0-3.53-2,62.15,62.15,0,0,0-6.5-1.77,48.42,48.42,0,0,1-7.25-2.16,11.2,11.2,0,0,1-4.86-3.48,9.45,9.45,0,0,1-1.7-5.83,11.44,11.44,0,0,1,2.08-6.91,12.66,12.66,0,0,1,5.61-4.25,21,21,0,0,1,7.87-1.38,23.42,23.42,0,0,1,5.22.55,19.79,19.79,0,0,1,4.53,1.63,18.87,18.87,0,0,1,3.9,2.67l.83.73-3.42,5.5L754.09,158a9.51,9.51,0,0,0-1.72-1.47,12.91,12.91,0,0,0-2.29-1.17,16.9,16.9,0,0,0-2.8-.81,15.09,15.09,0,0,0-3.15-.31c-3.17,0-5.48.56-6.87,1.67a5.15,5.15,0,0,0-2,4.29,4.14,4.14,0,0,0,.83,2.78,6.9,6.9,0,0,0,3.06,1.76c1.61.54,3.69,1.1,6.19,1.68A47,47,0,0,1,753,168.6a12.64,12.64,0,0,1,5.32,3.67,9.82,9.82,0,0,1,2,6.41A11.13,11.13,0,0,1,759,184a10.73,10.73,0,0,1-3.4,3.76,15,15,0,0,1-5,2.15A26.59,26.59,0,0,1,744.53,190.56Zm-14.34-7.26a19.17,19.17,0,0,0,3.59,2.27,22.9,22.9,0,0,0,5.09,1.78,26,26,0,0,0,5.66.6,23.59,23.59,0,0,0,5.5-.6,12.16,12.16,0,0,0,4.12-1.76,8.08,8.08,0,0,0,2.58-2.85,8.54,8.54,0,0,0,.91-4.06,7.37,7.37,0,0,0-1.39-4.76A10.28,10.28,0,0,0,752,171a45.11,45.11,0,0,0-7.16-2c-2.62-.6-4.78-1.18-6.46-1.74a9.55,9.55,0,0,1-4.21-2.53,6.63,6.63,0,0,1-1.48-4.5,7.68,7.68,0,0,1,3-6.33c1.89-1.51,4.67-2.24,8.5-2.24a18.74,18.74,0,0,1,3.67.35,19.9,19.9,0,0,1,3.23,1,15.09,15.09,0,0,1,2.78,1.42c.34.23.67.47,1,.72l.47-.75a15.88,15.88,0,0,0-2.51-1.6,17.09,17.09,0,0,0-3.93-1.41,21,21,0,0,0-4.63-.49,18.31,18.31,0,0,0-6.89,1.2,10.14,10.14,0,0,0-4.48,3.36,8.79,8.79,0,0,0-1.58,5.37,6.92,6.92,0,0,0,1.18,4.25,8.5,8.5,0,0,0,3.75,2.63,43.46,43.46,0,0,0,6.84,2,65,65,0,0,1,6.79,1.86,11.21,11.21,0,0,1,4.59,2.74,6.79,6.79,0,0,1,1.7,4.78,6.88,6.88,0,0,1-3.28,6.16,15.15,15.15,0,0,1-8.17,1.92,24.13,24.13,0,0,1-4.62-.44,21.64,21.64,0,0,1-4.2-1.27,23,23,0,0,1-3.53-1.84,17.67,17.67,0,0,1-1.57-1.15Z"/><path class="cls-1" d="M812.86,153.24H798.61V189h-3.94V153.24H780.41v-3.42h32.45Z"/><path class="cls-1" d="M799.92,190.29h-6.56V154.55H779.1v-6h35.07v6H799.92ZM796,187.67h1.33V151.93h14.25v-.8H781.72v.8H796Z"/><path class="cls-1" d="M852.41,189.26a17.32,17.32,0,0,1-7.66-1.66,18.3,18.3,0,0,1-5.92-4.49,21.12,21.12,0,0,1-3.83-6.4,20.44,20.44,0,0,1-1.35-7.31,20.08,20.08,0,0,1,1.41-7.47,20.31,20.31,0,0,1,4-6.35,19.52,19.52,0,0,1,6-4.41,17.23,17.23,0,0,1,7.44-1.63,17,17,0,0,1,7.66,1.71,18.62,18.62,0,0,1,5.89,4.58,21.83,21.83,0,0,1,3.8,6.4,20.27,20.27,0,0,1-.06,14.7,20.55,20.55,0,0,1-3.94,6.34,18.64,18.64,0,0,1-6,4.39A17.5,17.5,0,0,1,852.41,189.26ZM837.59,169.4a18,18,0,0,0,1.07,6.15,16.7,16.7,0,0,0,3.05,5.24,14.69,14.69,0,0,0,4.7,3.64,14.15,14.15,0,0,0,12.17-.05,14.71,14.71,0,0,0,4.67-3.76,16.54,16.54,0,0,0,3-5.26,18,18,0,0,0,1-6,17.75,17.75,0,0,0-1.07-6.12,16.9,16.9,0,0,0-3.07-5.24,14.71,14.71,0,0,0-4.71-3.64,14.14,14.14,0,0,0-12.08,0,14.5,14.5,0,0,0-4.68,3.73,17.19,17.19,0,0,0-3,5.26A17.53,17.53,0,0,0,837.59,169.4Z"/><path class="cls-1" d="M852.41,190.56a18.87,18.87,0,0,1-8.23-1.78,19.85,19.85,0,0,1-6.33-4.81,22.25,22.25,0,0,1-4.07-6.8,21.65,21.65,0,0,1,4.29-22.47,20.51,20.51,0,0,1,6.4-4.71,18.6,18.6,0,0,1,8-1.75,18.4,18.4,0,0,1,8.24,1.84A19.92,19.92,0,0,1,867,155a23.29,23.29,0,0,1,4,6.78,21.56,21.56,0,0,1-.06,15.65,22.21,22.21,0,0,1-4.19,6.74,19.88,19.88,0,0,1-6.39,4.69A18.68,18.68,0,0,1,852.41,190.56Zm.06-39.71a16,16,0,0,0-6.88,1.5,18.07,18.07,0,0,0-5.6,4.12,19.28,19.28,0,0,0-3.72,5.94,19,19,0,0,0-1.31,7,19.18,19.18,0,0,0,1.26,6.84,20,20,0,0,0,3.6,6,16.89,16.89,0,0,0,5.5,4.17,17,17,0,0,0,14,.05,17.3,17.3,0,0,0,5.56-4.08,19.6,19.6,0,0,0,3.7-5.94,19,19,0,0,0,1.31-7,18.79,18.79,0,0,0-1.26-6.76,20.61,20.61,0,0,0-3.58-6,17.24,17.24,0,0,0-5.48-4.26A15.73,15.73,0,0,0,852.47,150.85Zm-.06,36.24a14.65,14.65,0,0,1-6.58-1.49,16.1,16.1,0,0,1-5.12-4,18.12,18.12,0,0,1-3.28-5.64,19.33,19.33,0,0,1-1.14-6.6,19,19,0,0,1,4.32-12.06,16,16,0,0,1,5.1-4.06,15.57,15.57,0,0,1,13.25-.06,16.26,16.26,0,0,1,5.12,4,18.09,18.09,0,0,1,3.3,5.65,18.93,18.93,0,0,1,1.15,6.57,19.49,19.49,0,0,1-1.08,6.39,18.44,18.44,0,0,1-3.19,5.67,16.26,16.26,0,0,1-5.08,4.08A14.64,14.64,0,0,1,852.41,187.09Zm0-32.71a12.18,12.18,0,0,0-5.52,1.24,13,13,0,0,0-4.26,3.39,16.16,16.16,0,0,0-2.76,4.87,16.55,16.55,0,0,0,0,11.22,15.45,15.45,0,0,0,2.81,4.84,13.56,13.56,0,0,0,4.29,3.32,12.18,12.18,0,0,0,5.42,1.21,12,12,0,0,0,5.57-1.26,13.53,13.53,0,0,0,4.27-3.42,15.62,15.62,0,0,0,2.73-4.86,17,17,0,0,0,.94-5.53,16.34,16.34,0,0,0-1-5.67,15.76,15.76,0,0,0-2.83-4.84,13.66,13.66,0,0,0-4.29-3.32A12.19,12.19,0,0,0,852.41,154.38Z"/><path class="cls-1" d="M897.2,189V149.82h3.94v35.74h23.1V189Z"/><path class="cls-1" d="M925.55,190.29H895.89V148.51h6.56v35.74h23.1Zm-27-2.62h24.42v-.8h-23.1V151.13h-1.32Z"/><path class="cls-1" d="M961,149.82h3.32L981,189H976.8l-5-12.24H953.52l-5,12.24h-4.23Zm9.53,23.88-7.9-19.36-7.9,19.36Z"/><path class="cls-1" d="M983,190.29h-7l-5-12.25H954.4l-5,12.25h-7.09l17.85-41.78h5.06Zm-5.27-2.62H979l-15.51-36.54h-.72L972.51,175h-19.7l9.75-23.88h-.67l-15.61,36.54h1.36l5-12.24h20Zm-21-15.28h11.92l-6-14.59Z"/><path class="cls-1" d="M1035.39,178.89a9.23,9.23,0,0,1-1.52,5.21,10.45,10.45,0,0,1-4.09,3.58,12.12,12.12,0,0,1-5.6,1.3h-18.87V149.82h19.26a8.24,8.24,0,0,1,4.88,1.46,9.7,9.7,0,0,1,3.15,3.75,11,11,0,0,1,1.1,4.77,10.21,10.21,0,0,1-1.52,5.41,9.22,9.22,0,0,1-4.23,3.69,10.06,10.06,0,0,1,5.44,3.7A10.31,10.31,0,0,1,1035.39,178.89Zm-26.14-25.71v14.46H1023a6,6,0,0,0,3.49-1,7.5,7.5,0,0,0,2.42-2.67,7.27,7.27,0,0,0,.9-3.53,7.74,7.74,0,0,0-.84-3.61,7.07,7.07,0,0,0-2.31-2.62,5.76,5.76,0,0,0-3.33-1Zm22.2,25a7.64,7.64,0,0,0-3.36-6.4,6.11,6.11,0,0,0-3.52-1.05h-15.32v14.84h14.93a6.63,6.63,0,0,0,3.66-1.05,8.05,8.05,0,0,0,2.62-2.73A7,7,0,0,0,1031.45,178.23Z"/><path class="cls-1" d="M1024.18,190.29H1004V148.51h20.57a9.5,9.5,0,0,1,5.63,1.7,11,11,0,0,1,3.58,4.26,12.13,12.13,0,0,1,1.23,5.33,11.45,11.45,0,0,1-1.72,6.09,10.43,10.43,0,0,1-2.45,2.79,11.07,11.07,0,0,1,3.6,3.14,11.61,11.61,0,0,1,2.26,7.07,10.53,10.53,0,0,1-1.74,5.93,11.8,11.8,0,0,1-4.59,4A13.46,13.46,0,0,1,1024.18,190.29Zm-17.57-2.62h17.57a11.05,11.05,0,0,0,5-1.15,9.29,9.29,0,0,0,3.59-3.14,7.83,7.83,0,0,0,1.3-4.49,8.94,8.94,0,0,0-1.74-5.51,8.53,8.53,0,0,0-4.18-3c.23.12.45.26.67.4a9,9,0,0,1,3.92,7.49,8.38,8.38,0,0,1-1.16,4.27,9.32,9.32,0,0,1-3,3.17,8,8,0,0,1-4.37,1.25h-16.24V169.47h16.63c.26,0,.5,0,.75,0l-1.16-.33,1.59-.71a7.76,7.76,0,0,1-2.75.48h-15.06V151.88h15.39a7.15,7.15,0,0,1,4.06,1.21,8.46,8.46,0,0,1,2.74,3.1,9.05,9.05,0,0,1,1,4.22,8.63,8.63,0,0,1-1.06,4.15,8.77,8.77,0,0,1-2.84,3.14,6.71,6.71,0,0,1-.68.4l.88-.39a7.91,7.91,0,0,0,3.64-3.19,8.71,8.71,0,0,0,1.33-4.72,9.53,9.53,0,0,0-1-4.2,8.21,8.21,0,0,0-2.73-3.25,6.88,6.88,0,0,0-4.12-1.22h-18Zm3.95-3.36h13.62a5.38,5.38,0,0,0,3-.84,6.58,6.58,0,0,0,2.19-2.29,5.65,5.65,0,0,0,.81-3,6.36,6.36,0,0,0-.75-3.06,6.15,6.15,0,0,0-2-2.26,4.84,4.84,0,0,0-2.79-.82h-14Zm0-18H1023a4.76,4.76,0,0,0,2.76-.8,6.12,6.12,0,0,0,2-2.22,5.88,5.88,0,0,0,.74-2.9,6.36,6.36,0,0,0-.69-3,5.69,5.69,0,0,0-1.89-2.14,4.44,4.44,0,0,0-2.59-.77h-12.77Z"/><path class="cls-1" d="M281.42,392.81V261.67h48.95q21.6,0,36.11,8.77a56.63,56.63,0,0,1,21.88,23.64,73,73,0,0,1,7.39,33q0,19.95-8.12,34.73a57.16,57.16,0,0,1-22.82,22.9q-14.69,8.13-34.44,8.13Zm83.49-65.76a47.62,47.62,0,0,0-4.07-20.22A31.28,31.28,0,0,0,349,293.16q-7.75-4.89-18.65-4.9H311.71v77.95h18.66q11.07,0,18.74-5.08a32.44,32.44,0,0,0,11.73-14A47.94,47.94,0,0,0,364.91,327.05Z"/><path class="cls-1" d="M429.18,392.81V261.67h30.3V392.81Z"/><path class="cls-1" d="M533.17,261.67h32.69l45.07,131.14h-31L571,363.44H527.84L519,392.81h-31Zm31.52,80.9-15.26-50.43-15.27,50.43Z"/><path class="cls-1" d="M639.38,392.81V261.67h30.29V366.21h63.54v26.6Z"/><path class="cls-1" d="M820.39,393.73a61.6,61.6,0,0,1-26.69-5.63A64.29,64.29,0,0,1,773.2,373,68.78,68.78,0,0,1,760,351.53a67.69,67.69,0,0,1-4.62-24.66,64.44,64.44,0,0,1,4.9-24.94,69.29,69.29,0,0,1,13.67-21.15,63.59,63.59,0,0,1,47-20,61.17,61.17,0,0,1,26.51,5.64A63.64,63.64,0,0,1,868,281.61a70.06,70.06,0,0,1,13.21,21.52,66.66,66.66,0,0,1,4.62,24.29,65.64,65.64,0,0,1-4.8,24.94,67.31,67.31,0,0,1-13.67,21.15,66.52,66.52,0,0,1-20.78,14.77A62,62,0,0,1,820.39,393.73Zm-34.17-66.49a49,49,0,0,0,2.22,14.68A39.11,39.11,0,0,0,795,354.57a32.35,32.35,0,0,0,10.81,8.87,34.94,34.94,0,0,0,29.92-.09,31.42,31.42,0,0,0,10.71-9.15,40.91,40.91,0,0,0,6.38-12.83,50.63,50.63,0,0,0,2.12-14.5,48.08,48.08,0,0,0-2.22-14.59,39.35,39.35,0,0,0-6.65-12.66,30.77,30.77,0,0,0-10.89-8.77,33,33,0,0,0-14.59-3.14A30.93,30.93,0,0,0,794.81,300a39,39,0,0,0-6.47,12.75A50.58,50.58,0,0,0,786.22,327.24Z"/><path class="cls-1" d="M974.44,393.73A61.33,61.33,0,0,1,929.92,375a64.25,64.25,0,0,1-13.57-21.24,73.38,73.38,0,0,1-4.9-27.43,64.85,64.85,0,0,1,5-25.49A66.45,66.45,0,0,1,930.29,280a63.93,63.93,0,0,1,20.78-14.13,65.11,65.11,0,0,1,25.77-5.08q18.09,0,31.95,7.76a49.17,49.17,0,0,1,20.5,20.87l-22.53,17a33,33,0,0,0-12.84-13.66,35,35,0,0,0-18.19-5,30.35,30.35,0,0,0-13.58,3.05,32.5,32.5,0,0,0-10.71,8.49,38.74,38.74,0,0,0-6.93,12.66,48.75,48.75,0,0,0-2.4,15.51,46,46,0,0,0,2.59,15.7,38.24,38.24,0,0,0,7.2,12.47,32.83,32.83,0,0,0,11,8.22A33.19,33.19,0,0,0,977,366.76a36.92,36.92,0,0,0,18-4.71,51.79,51.79,0,0,0,15.79-13.94V378Q995.13,393.74,974.44,393.73ZM1009,346.26H983.49v-22h50.61v68.53H1009Z"/><path class="cls-1" d="M275.78,70.88a64.79,64.79,0,0,1,47.37,20.38,68.35,68.35,0,0,1,18.66,49.18C341,172.68,318,200,287,205.48a65.62,65.62,0,0,1-11.29,1,64.07,64.07,0,0,1-28.46-6.58A24.75,24.75,0,0,0,215,209.56a26.22,26.22,0,0,0-1.16,25.06,89.39,89.39,0,0,1-7.53,90.76,84.7,84.7,0,0,1-69.17,36,83.89,83.89,0,0,1-37.82-9.07,86.61,86.61,0,0,1-12.52-7.81,87.48,87.48,0,0,1-34.07-57.31,88.8,88.8,0,0,1,15.42-65.24,87.73,87.73,0,0,1,11.15-12.83,83.9,83.9,0,0,1,99.79-11.94A24.75,24.75,0,0,0,212.41,189a26.31,26.31,0,0,0,2.27-24.24,68.83,68.83,0,0,1-5.06-26.06,70.43,70.43,0,0,1,1.25-13.23,68.43,68.43,0,0,1,21.88-38.29,64.45,64.45,0,0,1,40.82-16.24c.75,0,1.47,0,2.21,0m0-24.44c-1,0-2,0-3,.05-42.39,1.38-77.37,32.83-85.33,74.23a94.78,94.78,0,0,0-1.7,18,93.79,93.79,0,0,0,6.9,35.47,1.34,1.34,0,0,1-1.88,1.72,106.73,106.73,0,0,0-53.47-14.36,107.9,107.9,0,0,0-74.18,29.64,110.9,110.9,0,0,0-14.22,16.38c-35.62,50-24.95,120.18,23.83,156.7a109.36,109.36,0,0,0,16,10,106.56,106.56,0,0,0,48.41,11.62,108.34,108.34,0,0,0,88.42-46,114.55,114.55,0,0,0,9.64-116,1.37,1.37,0,0,1,1.18-2,1.23,1.23,0,0,1,.57.14,88.14,88.14,0,0,0,54.07,7.64c41.63-7.33,73.48-44,74.58-88.5,1.3-52.29-39.25-94.63-89.85-94.63"/><path class="cls-1" d="M137.17,389.3a110.79,110.79,0,0,1-50-12A112.86,112.86,0,0,1,70.68,367C20.48,329.44,9.45,257,46.1,205.5a115.9,115.9,0,0,1,14.66-16.88A111,111,0,0,1,137.34,158h0a110.59,110.59,0,0,1,50.11,12A97.32,97.32,0,0,1,214.94,66,92.35,92.35,0,0,1,272.7,43c1,0,2.06,0,3.08,0a91.7,91.7,0,0,1,66.12,28,96.19,96.19,0,0,1,27.22,70.23C368,186.67,335.41,225.3,291.65,233a92.17,92.17,0,0,1-15.92,1.38,90.68,90.68,0,0,1-35-6.94,117.71,117.71,0,0,1-12.3,114.36A112.44,112.44,0,0,1,137.17,389.3ZM137.34,165a104.08,104.08,0,0,0-71.78,28.69,108.3,108.3,0,0,0-13.78,15.87C17.31,258,27.66,326.1,74.86,361.44a105.72,105.72,0,0,0,15.48,9.64,103.68,103.68,0,0,0,46.83,11.24,105.44,105.44,0,0,0,85.57-44.55,110.77,110.77,0,0,0,9.35-112.48,4.87,4.87,0,0,1,.25-4.72,4.78,4.78,0,0,1,4.07-2.27,4.87,4.87,0,0,1,2.11.49,83.66,83.66,0,0,0,37.21,8.63,85.11,85.11,0,0,0,14.71-1.28c40.5-7.13,70.66-42.95,71.71-85.16a89.3,89.3,0,0,0-25.24-65.19,84.76,84.76,0,0,0-61.13-25.86c-.95,0-1.89,0-2.85,0-40.45,1.32-74.18,30.68-82,71.4a91.78,91.78,0,0,0-1.65,17.3,90.2,90.2,0,0,0,6.65,34.16,4.9,4.9,0,0,1-.46,4.56,4.78,4.78,0,0,1-6.39,1.49A103.6,103.6,0,0,0,137.34,165Zm-.17,199.87a87.33,87.33,0,0,1-39.4-9.45,89.9,89.9,0,0,1-13-8.12A91,91,0,0,1,49.31,287.7a92.28,92.28,0,0,1,16-67.78,91.31,91.31,0,0,1,11.59-13.34,87.54,87.54,0,0,1,60.41-24.12h0a87.09,87.09,0,0,1,43.52,11.69,21.26,21.26,0,0,0,28.62-7.07,22.8,22.8,0,0,0,2-21,72.23,72.23,0,0,1-5.32-27.37,73.93,73.93,0,0,1,1.32-13.88,71.88,71.88,0,0,1,23-40.26,68.62,68.62,0,0,1,95.23,4.31,71.85,71.85,0,0,1,19.62,51.68c-.85,33.89-25.1,62.65-57.68,68.39a69.42,69.42,0,0,1-11.89,1,67.48,67.48,0,0,1-30-6.94A21.27,21.27,0,0,0,218,211.36a22.75,22.75,0,0,0-1,21.74,92.88,92.88,0,0,1-7.83,94.3,88.18,88.18,0,0,1-72,37.46Zm.17-175.42a80.61,80.61,0,0,0-55.62,22.2,85.63,85.63,0,0,0,7.2,130.06,83.26,83.26,0,0,0,12,7.49,80.26,80.26,0,0,0,36.24,8.69,81.19,81.19,0,0,0,66.33-34.53,85.9,85.9,0,0,0,7.23-87.21,29.71,29.71,0,0,1,1.32-28.39,28.22,28.22,0,0,1,36.75-11A60.7,60.7,0,0,0,275.73,203a62.44,62.44,0,0,0,10.68-.93c29.32-5.16,51.15-31.11,51.91-61.69a64.82,64.82,0,0,0-17.7-46.7,61.66,61.66,0,0,0-85.57-3.88,64.91,64.91,0,0,0-20.75,36.33,66.76,66.76,0,0,0-1.19,12.57,65.35,65.35,0,0,0,4.8,24.75,29.77,29.77,0,0,1-2.58,27.45,28.23,28.23,0,0,1-38,9.31A80.09,80.09,0,0,0,137.34,189.44Z"/><path class="cls-2" d="M123.53,305.27a49.79,49.79,0,1,1,70.35,2.86,49.78,49.78,0,0,1-70.35-2.86"/><path class="cls-2" d="M256.53,189.79a27.43,27.43,0,1,1,38.76,1.58,27.41,27.41,0,0,1-38.76-1.58"/><rect class="cls-2" x="480.23" y="205.5" width="566.38" height="6.98"/><rect class="cls-2" x="447.46" y="219.62" width="40.32" height="6.98" transform="translate(-25.95 380.69) rotate(-43.21)"/><rect class="cls-2" x="464.28" y="172.84" width="6.98" height="43.24" transform="translate(-2.35 383.16) rotate(-44.44)"/><rect class="cls-1" x="429.77" y="194.16" width="28.5" height="28.5" transform="translate(-17.32 375.01) rotate(-45)"/></svg>