<svg id="Слой_1" data-name="Слой 1" xmlns="http://www.w3.org/2000/svg" viewBox="0 0 1080 1080"><defs><style>.cls-1{fill:#001886;stroke:#001886;}.cls-1,.cls-3{stroke-miterlimit:10;stroke-width:20.28px;}.cls-2{fill:#f09fe4;}.cls-3{fill:none;stroke:#f09fe4;}</style></defs><path class="cls-1" d="M769.69,111.58a188.37,188.37,0,0,1,137.72,59.23c36.31,38.2,55.57,89,54.23,143-2.32,93.72-69.32,173.24-159.29,189.08a189.52,189.52,0,0,1-32.83,2.86,186.4,186.4,0,0,1-82.74-19.15,72.14,72.14,0,0,0-31.57-7.36c-25.46,0-48.69,13.28-62.14,35.5a76.21,76.21,0,0,0-3.37,72.86,259.88,259.88,0,0,1-21.91,263.86A246.22,246.22,0,0,1,366.71,956.1a243.56,243.56,0,0,1-110-26.38A251.14,251.14,0,0,1,220.34,907c-53.64-40.17-88.82-99.35-99.06-166.64s5.7-134.66,44.86-189.66a255.82,255.82,0,0,1,32.39-37.3,243.93,243.93,0,0,1,290.12-34.73,71.92,71.92,0,0,0,96.79-23.78,76.5,76.5,0,0,0,6.61-70.49,200,200,0,0,1-14.72-75.78A203.77,203.77,0,0,1,581,270.23a198.82,198.82,0,0,1,63.6-111.33c33.53-29.45,74.57-45.78,118.68-47.22,2.17-.07,4.27-.1,6.43-.1m0-71.06c-2.87,0-5.73,0-8.63.14-123.21,4-224.91,95.45-248.06,215.82A275.76,275.76,0,0,0,528.1,411.8a4,4,0,0,1-3.54,5.52,3.74,3.74,0,0,1-1.91-.53A310.26,310.26,0,0,0,367.21,375a313.62,313.62,0,0,0-215.67,86.19,325.17,325.17,0,0,0-41.36,47.6C6.64,654.27,37.66,858.24,179.48,964.42a318.49,318.49,0,0,0,46.47,29,309.89,309.89,0,0,0,140.76,33.79c98.07,0,194.78-46.36,257-133.8,72.36-101.63,79-231.85,28-337.31a4,4,0,0,1,3.43-5.75,3.89,3.89,0,0,1,1.67.4,256.55,256.55,0,0,0,157.19,22.22c121-21.3,213.63-127.91,216.84-257.3,3.78-152-114.11-275.1-261.22-275.1"/><path class="cls-2" d="M327,793a144.74,144.74,0,1,1,204.53,8.31A144.73,144.73,0,0,1,327,793"/><path class="cls-2" d="M713.72,457.27a79.73,79.73,0,1,1,112.67,4.58,79.74,79.74,0,0,1-112.67-4.58"/><line class="cls-3" x1="816.97" y1="732.61" x2="1001.39" y2="732.61"/><line class="cls-3" x1="737.57" y1="813.77" x2="823.01" y2="733.51"/><line class="cls-3" x1="736.71" y1="645.48" x2="824.74" y2="735.23"/></svg>